<?xml version="1.0" encoding="UTF-8"?>
<svg id="Ebene_1" xmlns="http://www.w3.org/2000/svg" version="1.1" viewBox="0 0 224.01 198.06">
  <!-- Generator: Adobe Illustrator 29.1.0, SVG Export Plug-In . SVG Version: 2.1.0 Build 142)  -->
  <path d="M172.366,64.821l-5.479-5.174c-16.693-20.83-7.263-46.422,16.226-56.407,12.317-5.236,31.158-5.274,37.945,8.575,9.974,20.35-19.07,33.443-13.715,51.754,1.713,5.858,7.673,11.574,10.799,16.866,10.051,17.016,6.631,32.649-6.021,46.911-6.19,6.977-13.084,10.247-21.024,14.709-.411,13.507-.022,25.874-7.104,37.851-18.617,31.485-64.569,13.402-93.273,8.932-22.002-3.426-69.769-3.592-77.684-30.093-.654-2.19-.754-7.327-1.182-8.039-.42-.698-5.116-3.314-6.359-4.591C2.864,143.411.018,137.481,0,133.701c-.014-3.061,2.273-6.529,2.292-8.059.014-1.088-.944-2.295-1.052-3.516-.684-7.696,1.757-14.279,7.748-19.247,2.202-1.827,7.334-3.85,8.604-5.228,3.032-3.288,4.205-8.186,8.955-12.37,28.73-25.312,90.225-10.91,125.353-10.092,6.096-4.705,12.738-8.956,20.466-10.367ZM86.414,146.749c-11.403-3.893-23.302-7.042-35.37-8.144-9.956-.91-27.854-1.642-32.482,9.582-4.969,12.052,9.133,22.094,18.792,26.01,13.278,5.383,26.371,5.093,40.133,7.127,9.383,1.387,18.794,3.054,28.134,4.718,22.884,4.078,53.956,16.139,71.656-5.361,9.853-11.969,9.437-26.726,8.177-41.34,5.669-4.504,12.67-7.563,18.311-12.284,12.977-10.861,18.825-25.265,10.786-41.299-2.919-5.822-7.919-10.466-10.781-16.307-11.581-23.628,18.495-34.203,12.817-53.737-3.644-12.534-20.723-11.576-30.535-7.807-16.274,6.25-25.551,20.802-20.771,38.364,1.394,5.123,7.69,14.605,12.656,16.738,3.382,1.452,7.929.077,11.596,1.65l.634.238c.329,1.514.145,3.304-1.504,3.832-12.443,1.079-24.722,1.367-33.877,11.078-11.584,12.286-7.001,26.325.63,39.152,1.431,2.406,7.045,9.288,7.511,10.987.452,1.65-1.316,2.644-2.82,2.232-1.174-.321-5.862-6.686-6.882-8.146-8.876-12.706-14.879-29.641-5.06-43.636l-44.067-4.064c-27.121-.432-60.674-4.734-79.845,18.758,6.674-.668,13.273-2.321,19.955-3.099,16.692-1.944,35.02-1.969,51.62.681,4.815.769,9.593,1.782,14.237,3.237.589-1.975,9.032-9.671,10.175-9.784,1.179-.116,2.986,1.002,2.308,2.331-10.112,10.487-19.519,21.942-24.805,35.746-4.811,12.562-5.722,25.317-7.288,38.528-7.353,1.618-2.335-13.319-4.04-15.979ZM106.089,99.991c-19.259-3.158-38.951-5.174-58.494-3.46-14.399,1.263-43.738,4.962-41.784,24.778,1.395-1.02,2.7-2.114,4.22-2.979,16.913-9.624,57.455-8.614,76.583-5.498,3.337.544,6.534,1.704,9.883,2.184l9.592-15.026ZM93.987,120.163c-5.87-.859-11.752-2.133-17.652-2.814-15.738-1.817-52.908-3.554-65.616,6.28-8.896,6.884-6.663,17.713,2.857,22.474,9.956-18.213,35.826-13.476,52.866-10.217,7.205,1.378,14.253,3.298,21.202,5.594.554-7.463,3.515-14.507,6.343-21.317Z"/>
  <path d="M86.414,146.749c1.705,2.66-3.313,17.597,4.04,15.979,1.566-13.211,2.477-25.966,7.288-38.528,5.286-13.804,14.693-25.259,24.805-35.746.678-1.329-1.129-2.447-2.308-2.331-1.143.113-9.586,7.809-10.175,9.784-4.644-1.455-9.422-2.468-14.237-3.237-16.6-2.65-34.928-2.625-51.62-.681-6.681.778-13.281,2.431-19.955,3.099,19.171-23.492,52.724-19.19,79.845-18.758l44.067,4.064c-9.82,13.995-3.816,30.93,5.06,43.636,1.02,1.461,5.708,7.825,6.882,8.146,1.504.412,3.272-.582,2.82-2.232-.466-1.699-6.079-8.581-7.511-10.987-7.63-12.827-12.214-26.866-.63-39.152,9.156-9.711,21.434-9.999,33.877-11.078,1.649-.529,1.833-2.318,1.504-3.832l-.634-.238c-3.667-1.573-8.214-.197-11.596-1.65-4.966-2.132-11.262-11.615-12.656-16.738-4.781-17.563,4.497-32.114,20.771-38.364,9.812-3.768,26.891-4.726,30.535,7.807,5.679,19.534-24.398,30.109-12.817,53.737,2.863,5.841,7.862,10.485,10.781,16.307,8.038,16.033,2.19,30.437-10.786,41.299-5.641,4.721-12.642,7.781-18.311,12.284,1.261,14.615,1.676,29.372-8.177,41.34-17.7,21.501-48.772,9.439-71.656,5.361-9.34-1.664-18.75-3.332-28.134-4.718-13.762-2.034-26.855-1.744-40.133-7.127-9.658-3.916-23.761-13.958-18.792-26.01,4.628-11.224,22.526-10.491,32.482-9.582,12.068,1.103,23.967,4.252,35.37,8.144Z" fill="#fff"/>
  <path d="M93.987,120.163c-2.829,6.811-5.79,13.854-6.343,21.317-6.949-2.296-13.997-4.215-21.202-5.594-17.04-3.26-42.91-7.996-52.866,10.217-9.52-4.762-11.753-15.59-2.857-22.474,12.708-9.835,49.878-8.097,65.616-6.28,5.9.681,11.782,1.956,17.652,2.814Z" fill="#fff"/>
  <path d="M106.089,99.991l-9.592,15.026c-3.349-.48-6.546-1.64-9.883-2.184-19.128-3.117-59.67-4.126-76.583,5.498-1.519.864-2.825,1.959-4.22,2.979-1.954-19.817,27.384-23.515,41.784-24.778,19.543-1.714,39.235.301,58.494,3.46Z" fill="#fff"/>
</svg>