<?xml version="1.0" encoding="UTF-8"?>
<svg id="Ebene_1" xmlns="http://www.w3.org/2000/svg" version="1.1" viewBox="0 0 163.468 186.635">
  <!-- Generator: Adobe Illustrator 29.1.0, SVG Export Plug-In . SVG Version: 2.1.0 Build 142)  -->
  <path d="M136.379,92.165l5.204,9.334c3.967,11.227,1.136,23.354-8.861,30.177,6.524,12.981-2.515,26.396-16.654,26.963,4.291,8.643.758,18.86-7.238,23.921-17.652,11.172-41.303-2.586-51.823-17.686-21.935.765-53.568-16.383-56.749-39.769-1.602-11.772,4.493-22.716,11.947-31.323-4.479-7.675-8.793-16.147-10.021-25.073-1.285-9.344-1.535-21.918.447-31.126C9.778,4.385,47.518-12.775,74.291,11.209c13.99-5.38,31.057-4.022,45.564-1.084,15.481,3.136,29.418,10.3,37.672,24.188,13.14,22.113,3.781,50.495-21.148,57.852ZM47.288,56.614l9.67-20.101c1.242-1.511,3.77.074,3.742,1.849-6.684,17.401-15.099,34.416-18.742,52.859-2.435,12.325-3.571,33.957,12.598,37.29,29.034,5.985,35.169-47.599,34.733-66.583-.638-27.821-19.923-65.271-53.09-54.945C4.338,16.902.711,61.495,14.429,86.93c1.164,2.157,4.861,6.322,4.737,8.234-.112,1.725-2.27,2.559-3.51,3.916-22.864,24.999-2.813,47.291,22.743,56.671,5.11,1.875,10.445,3.331,15.808,4.269-3.452-8.614-5.226-17.461-1.381-26.304-26.438-8.193-16.92-43.116-10.594-62.52-3.064-1.875-4.975-5.074-6.729-8.108-3.04-5.257-9.191-17.424-8.054-23.311.345-1.785,2.545-2.287,3.708-.963,1.048,1.193,2.839,8.9,3.654,11.116,2.017,5.482,4.544,11.652,8.186,16.257.292.37-.016.849,1.051.585-.158-1.146.887-2.384.807-3.39-.091-1.148-2.355-5.837-2.879-7.691-2.068-7.308-3.035-15.263-2.562-22.873.132-2.115.779-11.516,4.643-8.288.957.799.307,12.865.439,15.254.314,5.697,1.727,11.259,2.794,16.83ZM94.011,76.368c14.334,11.192,36.411,17.453,51.819,4.7,10.396-8.604,14.166-22.507,10.522-35.423-8.799-31.189-51.714-35.951-78.6-30.573,6.265,7.118,11.097,15.658,13.394,24.922.637.126.589.097.956-.294.999-1.062,1.666-2.285,2.975-3.384,4.105-3.447,12.014-7.804,17.485-7.379,2.017.157,2.884,2.318,1.453,3.699l-12.256,5.508c5.887-1.232,11.841-1.824,17.226,1.472,1.53.937,5.645,4.449,3.103,6.169-1.455.984-7.092-1.858-9.248-2.332-7.699-1.694-13.051.615-19.803,3.984,1.6,9.581,1.424,19.255.973,28.931ZM92.99,82.467l-6.049,28.399c9.426,9.69,26.382,23.969,40.841,17.245,8.92-4.148,12.091-14.597,9.494-23.688-.596-2.088-4.14-9.313-5.71-10.447-1.36-.982-9.985-.238-12.489-.437-9.146-.726-19.22-5.053-26.086-11.072ZM128.53,133.707c-9.866,3.102-19.726-.334-28.468-4.997-5.93-3.163-11.498-7.188-15.623-12.539-.921-.184-.564.201-.787.584-2.458,4.221-4.934,8.5-9.165,11.218-.068.42.101.745.274,1.107.723,1.523,5.303,7.056,6.672,8.566,8.132,8.965,24.254,17.808,36.576,15.316,10.042-2.031,13.38-9.735,10.522-19.254ZM70.308,131.458c-3.896.784-7.686,2.745-11.868,2.786-1.834,6.428-2.221,13.71-.208,20.138,4.83,15.42,27.684,30.942,43.773,25.509,7.092-2.395,11.323-8.892,10.33-16.367-.885-6.658-4.232-4.942-9.293-6.403-13.091-3.779-27.023-12.97-32.734-25.663Z"/>
  <path d="M47.288,56.614c-1.067-5.571-2.48-11.133-2.794-16.83-.132-2.389.518-14.455-.439-15.254-3.863-3.228-4.511,6.173-4.643,8.288-.473,7.61.494,15.564,2.562,22.873.524,1.854,2.788,6.542,2.879,7.691.08,1.006-.965,2.244-.807,3.39-1.067.265-.759-.215-1.051-.585-3.643-4.605-6.169-10.775-8.186-16.257-.815-2.216-2.606-9.923-3.654-11.116-1.164-1.325-3.364-.822-3.708.963-1.138,5.887,5.014,18.054,8.054,23.311,1.754,3.034,3.665,6.233,6.729,8.108-6.326,19.404-15.844,54.327,10.594,62.52-3.845,8.843-2.071,17.691,1.381,26.304-5.363-.938-10.698-2.393-15.808-4.269-25.555-9.38-45.606-31.672-22.743-56.671,1.241-1.357,3.399-2.191,3.51-3.916.124-1.912-3.573-6.077-4.737-8.234C.711,61.495,4.338,16.902,36.198,6.983c33.166-10.326,52.451,27.125,53.09,54.945.435,18.983-5.699,72.567-34.733,66.583-16.169-3.333-15.032-24.965-12.598-37.29,3.643-18.443,12.058-35.458,18.742-52.859.028-1.774-2.5-3.36-3.742-1.849l-9.67,20.101Z" fill="#fff"/>
  <path d="M94.011,76.368c.451-9.675.627-19.349-.973-28.931,6.753-3.369,12.104-5.678,19.803-3.984,2.156.474,7.793,3.316,9.248,2.332,2.543-1.72-1.572-5.232-3.103-6.169-5.386-3.296-11.34-2.705-17.226-1.472l12.256-5.508c1.43-1.381.563-3.542-1.453-3.699-5.471-.425-13.38,3.932-17.485,7.379-1.309,1.099-1.976,2.322-2.975,3.384-.368.391-.319.421-.956.294-2.297-9.264-7.128-17.805-13.394-24.922,26.886-5.378,69.8-.616,78.6,30.573,3.644,12.916-.126,26.819-10.522,35.423-15.408,12.753-37.485,6.492-51.819-4.7Z" fill="#fff"/>
  <path d="M92.99,82.467c6.865,6.018,16.94,10.346,26.086,11.072,2.504.199,11.129-.546,12.489.437,1.57,1.134,5.114,8.359,5.71,10.447,2.597,9.091-.574,19.54-9.494,23.688-14.459,6.724-31.414-7.556-40.841-17.245l6.049-28.399Z" fill="#fff"/>
  <path d="M70.308,131.458c5.71,12.693,19.643,21.885,32.734,25.663,5.061,1.461,8.409-.255,9.293,6.403.993,7.475-3.238,13.972-10.33,16.367-16.089,5.433-38.943-10.089-43.773-25.509-2.013-6.427-1.626-13.71.208-20.138,4.182-.042,7.972-2.002,11.868-2.786Z" fill="#fff"/>
  <path d="M128.53,133.707c2.858,9.518-.48,17.223-10.522,19.254-12.322,2.492-28.444-6.35-36.576-15.316-1.369-1.509-5.949-7.043-6.672-8.566-.172-.362-.341-.687-.274-1.107,4.232-2.718,6.707-6.997,9.165-11.218.223-.383-.134-.769.787-.584,4.125,5.351,9.693,9.376,15.623,12.539,8.742,4.663,18.602,8.099,28.468,4.997Z" fill="#fff"/>
</svg>