<?xml version="1.0" encoding="UTF-8"?>
<svg id="Ebene_1" xmlns="http://www.w3.org/2000/svg" version="1.1" viewBox="0 0 223.693 225.66">
  <!-- Generator: Adobe Illustrator 29.1.0, SVG Export Plug-In . SVG Version: 2.1.0 Build 142)  -->
  <path d="M213.06,32.063c17.054,16.7,10.898,40.771.302,58.972-2.652,4.555-13.296,17.818-14.252,20.905-.848,2.736-.446,10.06-.836,13.573-1.372,12.338-6.749,32.924-22.64,31.295l-4.435-2.759c-4.933,17.437-25.503,22.599-35.474,5.781-2.437-4.11-2.997-7.464-4.287-11.859-.247-.841.329-1.003-1.163-.842-4.11,13.929-12.031,27.487-20.284,39.375-8.203,11.816-28.279,36.869-42.981,38.86-8.852,1.199-16.64-.998-17.424-11.095-1.35-17.402,27.784-47.303,37.12-62.577,3.591-5.876,7.372-12.669,8.4-19.547-19.585,15.403-32.616,37.562-52.501,52.676-9.632,7.321-25.045,16.144-36.91,8.788-12.74-7.899-1.1-26.091,5.832-34.103,14.433-16.681,33.655-31.455,49.02-47.807,1.97-2.097,15.27-16.708,15.341-17.885-1.894-3.932-2.397-8.353-2.091-12.668,1.674-23.566,33.992-63.498,54.157-74.945,21.062-11.957,43.738-6.765,52.44,16.779,11.424-2.717,24.286.874,32.668,9.082ZM175.937,29.416c-.579-.578-1.237-7.161-1.996-9.24-4.592-12.585-20.319-16.674-32.262-14.079-22.012,4.782-52.212,43.218-59.678,63.66-7.261,19.88-1.829,27.056,16.416,34.588,10.088,4.165,29.485,10.602,39.921,7.339,4.851-1.517,6.933-4.945,4.505-9.694-2.907-5.686-17.171-13.743-23.134-16.631-3.393-1.643-14.318-3.729-7.582-7.967,10.348,1.185,21.91,2.904,31.615-1.8,9.071-4.397,15.236-14.589,12.787-24.749-.638-2.646-4.953-8.566-4.941-9.499.009-.689.305-1.129.957-1.343,3.966-1.3,8.37,7.949,8.798,11.217,2.447,18.652-11.704,29.714-28.55,32.445-.587.095-5.933-.29-4.254,1.217,5.772,1.736,10.78,6.394,15.356,10.289,10.563-6.865,22.264.894,24.418,12.195l1.186-.361c5.567-13.769,22.89-17.983,27.628-1.169l1.14.371c10.088-17.264,24.676-34.524,19.439-56.022-3.402-13.967-16.631-24.017-31.181-22.295-2.686.318-8.571,3.54-10.588,1.528ZM162.347,160.191c8.73-9.712,5.511-32.217,3.499-44.316-1.643-9.879-6.366-22.75-18.843-16.832,3.768,7.982,1.655,13.38-6.201,16.834-3.828,1.683-4.945-.413-5.368,5.009-.847,10.856-.429,37.738,11.16,43.059,5.681,2.609,11.692.763,15.753-3.755ZM79.216,171.003c-7.895,10.689-19.704,23.957-23.457,36.77-3.376,11.526,3.672,16.17,14.143,11.838,14.623-6.05,36.811-35.23,44.904-49.04,5.003-8.537,14.028-26.504,15.313-35.982.719-5.298-.634-10.837.698-16.044l-.926-1.298c-10.223-.194-20.807-3.54-30.311-7.149-7.341-2.788-15.022-5.973-20.318-11.947-7.583,9.241-15.498,18.321-23.891,26.799-11.736,11.856-46.857,40.482-49.455,55.455-1.193,6.877,3.273,10.641,9.947,10.574,24.039-.241,51.801-41.745,68.29-56.825,4.741-4.336,17.833-14.384,16.714-.574-.855,10.547-15.266,28.78-21.65,37.423ZM183.14,100.002c-4.32.754-7.755,6.403-9.563,10.037-3.128,6.285-2.35,6.261-1.821,12.606.411,4.926.966,10.065,1.156,14.982.172,4.448-1.791,9.525,1.705,12.704,5.535,5.033,11.254-2.48,13.699-7.11,4.351-8.24,6.524-25.304,4.705-34.348-1.024-5.093-3.892-9.915-9.881-8.871Z"/>
  <path d="M175.937,29.416c2.017,2.013,7.902-1.21,10.588-1.528,14.55-1.722,27.779,8.328,31.181,22.295,5.237,21.497-9.351,38.758-19.439,56.022l-1.14-.371c-4.738-16.814-22.061-12.6-27.628,1.169l-1.186.361c-2.154-11.301-13.856-19.06-24.418-12.195-4.576-3.895-9.584-8.553-15.356-10.289-1.678-1.506,3.668-1.121,4.254-1.217,16.846-2.731,30.996-13.793,28.55-32.445-.429-3.268-4.833-12.517-8.798-11.217-.653.214-.948.655-.957,1.343-.012.934,4.303,6.853,4.941,9.499,2.449,10.16-3.715,20.351-12.787,24.749-9.705,4.704-21.267,2.985-31.615,1.8-6.736,4.239,4.189,6.324,7.582,7.967,5.964,2.888,20.227,10.945,23.134,16.631,2.428,4.749.346,8.177-4.505,9.694-10.436,3.263-29.832-3.174-39.921-7.339-18.244-7.533-23.676-14.708-16.416-34.588,7.466-20.442,37.666-58.878,59.678-63.66,11.943-2.595,27.671,1.494,32.262,14.079.758,2.079,1.417,8.662,1.996,9.24Z" fill="#fff"/>
  <path d="M79.216,171.003c6.384-8.643,20.796-26.876,21.65-37.423,1.119-13.81-11.973-3.762-16.714.574-16.49,15.08-44.251,56.583-68.29,56.825-6.674.067-11.14-3.697-9.947-10.574,2.598-14.973,37.719-43.599,49.455-55.455,8.392-8.478,16.308-17.558,23.891-26.799,5.296,5.974,12.977,9.159,20.318,11.947,9.504,3.61,20.088,6.955,30.311,7.149l.926,1.298c-1.332,5.206.021,10.745-.698,16.044-1.286,9.478-10.31,27.445-15.313,35.982-8.094,13.81-30.281,42.99-44.904,49.04-10.471,4.332-17.52-.312-14.143-11.838,3.753-12.813,15.562-26.081,23.457-36.77Z" fill="#fff"/>
  <path d="M162.347,160.191c-4.061,4.518-10.072,6.364-15.753,3.755-11.589-5.321-12.007-32.203-11.16-43.059.423-5.422,1.539-3.326,5.368-5.009,7.857-3.454,9.97-8.852,6.201-16.834,12.478-5.918,17.201,6.953,18.843,16.832,2.012,12.099,5.231,34.604-3.499,44.316Z" fill="#fff"/>
  <path d="M183.14,100.002c5.989-1.045,8.857,3.778,9.881,8.871,1.819,9.045-.354,26.109-4.705,34.348-2.444,4.629-8.163,12.143-13.699,7.11-3.496-3.18-1.534-8.256-1.705-12.704-.19-4.917-.745-10.056-1.156-14.982-.53-6.345-1.307-6.321,1.821-12.606,1.809-3.634,5.243-9.283,9.563-10.037Z" fill="#fff"/>
</svg>